<svg width="70" height="70" viewBox="0 0 70 70" fill="none" xmlns="http://www.w3.org/2000/svg">
<path d="M20.775 35.3246H13V34.5496H20.775V35.3246Z" fill="white"/>
<path d="M26.3406 44.9996V27.0246H23.3906V26.2996H27.1656V44.9996H26.3406Z" fill="white"/>
<path d="M41.1709 45.3246H40.7959C38.2126 45.3246 35.9792 44.3579 34.0959 42.4246C32.2292 40.4913 31.2959 38.2246 31.2959 35.6246C31.2959 33.0079 32.2459 30.7496 34.1459 28.8496C36.0459 26.9329 38.3292 25.9746 40.9959 25.9746C43.6626 25.9746 45.9459 26.9246 47.8459 28.8246C49.7459 30.7246 50.6959 33.0079 50.6959 35.6746C50.6959 37.3579 50.2709 38.9413 49.4209 40.4246C48.5709 41.9079 47.4042 43.0996 45.9209 43.9996C44.4542 44.8829 42.8709 45.3246 41.1709 45.3246ZM49.8709 35.6746C49.8709 33.2079 48.9959 31.0996 47.2459 29.3496C45.5126 27.5829 43.4209 26.6996 40.9709 26.6996C38.5376 26.6996 36.4542 27.5829 34.7209 29.3496C32.9876 31.0996 32.1209 33.2079 32.1209 35.6746C32.1209 38.1246 32.9876 40.2246 34.7209 41.9746C36.4542 43.7246 38.5376 44.5996 40.9709 44.5996C43.4209 44.5996 45.5126 43.7246 47.2459 41.9746C48.9959 40.2246 49.8709 38.1246 49.8709 35.6746Z" fill="white"/>
<path fill-rule="evenodd" clip-rule="evenodd" d="M33.703 28.4086C35.7186 26.3758 38.1607 25.3496 40.9959 25.3496C43.8297 25.3496 46.2716 26.3665 48.2878 28.3827C50.304 30.3989 51.3209 32.8408 51.3209 35.6746C51.3209 37.4687 50.8665 39.159 49.9632 40.7354C49.0598 42.3119 47.8175 43.5799 46.2451 44.5339L46.2434 44.535C44.6801 45.4765 42.9854 45.9496 41.1709 45.9496H40.7959C38.0357 45.9496 35.6433 44.9088 33.6482 42.8607L33.6463 42.8587C31.6713 40.8132 30.6709 38.3925 30.6709 35.6246C30.6709 32.8377 31.6899 30.4221 33.703 28.4086ZM22.7656 25.6746H27.7906V45.6246H25.7156V27.6496H22.7656V25.6746ZM40.9709 27.3246C38.7086 27.3246 36.7851 28.1381 35.167 29.7873L35.1649 29.7894C33.5477 31.4222 32.7459 33.3724 32.7459 35.6746C32.7459 37.9589 33.5468 39.9011 35.1649 41.5348C36.7825 43.1679 38.7066 43.9746 40.9709 43.9746C43.2531 43.9746 45.1852 43.167 46.8018 41.5348L46.804 41.5327C48.4381 39.8985 49.2459 37.957 49.2459 35.6746C49.2459 33.3743 48.4372 31.4248 46.804 29.7916L46.7997 29.7873C45.1826 28.1391 43.2512 27.3246 40.9709 27.3246ZM12.375 33.9246H21.4V35.9496H12.375V33.9246Z" fill="white"/>
<path d="M51.2333 7.78333C49.7667 7.78333 48.55 8.96667 48.55 10.4C48.55 11.8167 49.75 13.0167 51.2333 13.0167C52.7167 13.0167 53.9167 11.8167 53.9167 10.4C53.9167 8.96667 52.7 7.78333 51.2333 7.78333ZM51.2333 11.8167C50.3167 11.8167 49.85 11.05 49.85 10.4C49.85 9.75 50.3167 8.98333 51.2333 8.98333C52.15 8.98333 52.6167 9.75 52.6167 10.4C52.6167 11.05 52.15 11.8167 51.2333 11.8167ZM51.1833 18.7L51.9667 19.1833L58.3167 8.15L57.5333 7.7L51.1833 18.7ZM58.2667 13.8833C56.8 13.8833 55.5833 15.0667 55.5833 16.5C55.5833 17.9167 56.7833 19.1167 58.2667 19.1167C59.75 19.1167 60.95 17.9167 60.95 16.5C60.95 15.0667 59.7333 13.8833 58.2667 13.8833ZM58.2667 17.9167C57.35 17.9167 56.8833 17.15 56.8833 16.5C56.8833 15.85 57.35 15.0833 58.2667 15.0833C59.1833 15.0833 59.65 15.85 59.65 16.5C59.65 17.15 59.1833 17.9167 58.2667 17.9167Z" fill="white"/>
</svg>
