<svg width="29" height="25" viewBox="0 0 29 25" fill="none" xmlns="http://www.w3.org/2000/svg">
<path d="M29 2.35043L27.8728 0C23.364 2.35043 16.6007 6.94444 16.6007 17.2009C16.6007 21.9017 18.7526 25 22.7491 25C26.1307 25 28.8975 22.6496 28.8975 18.3761C28.8975 14.3162 26.1307 12.2863 22.7491 12.2863H22.0318C22.8516 8.86752 24.6961 5.02137 29 2.35043ZM12.3993 2.35043L11.2721 0C6.76325 2.35043 0 6.94444 0 17.2009C0 21.9017 2.15194 25 6.14841 25C9.53004 25 12.2968 22.6496 12.2968 18.3761C12.2968 14.3162 9.53004 12.2863 6.14841 12.2863H5.4311C6.25088 8.86752 8.09541 5.02137 12.3993 2.35043Z" fill="#F6F2EE"/>
</svg>
