<svg width="37" height="37" viewBox="0 0 37 37" fill="none" xmlns="http://www.w3.org/2000/svg">
<path fill-rule="evenodd" clip-rule="evenodd" d="M26.1228 0.00195312H10.1097C4.58238 0.00195312 0.101562 4.47911 0.101562 10.002V26.002C0.101562 31.5248 4.58238 36.002 10.1097 36.002H26.1228C31.6501 36.002 36.131 31.5248 36.131 26.002V10.002C36.131 4.47911 31.6501 0.00195312 26.1228 0.00195312ZM32.6281 26.002C32.6171 29.5872 29.711 32.491 26.1228 32.502H10.1097C6.52151 32.491 3.61541 29.5872 3.60442 26.002V10.002C3.61541 6.41665 6.52151 3.51293 10.1097 3.50195H26.1228C29.711 3.51293 32.6171 6.41665 32.6281 10.002V26.002ZM27.624 10.502C28.7295 10.502 29.6257 9.60651 29.6257 8.50195C29.6257 7.39739 28.7295 6.50195 27.624 6.50195C26.5185 6.50195 25.6224 7.39739 25.6224 8.50195C25.6224 9.60651 26.5185 10.502 27.624 10.502ZM18.1163 9.00195C13.1417 9.00195 9.10892 13.0314 9.10892 18.002C9.10892 22.9726 13.1417 27.002 18.1163 27.002C23.0909 27.002 27.1236 22.9726 27.1236 18.002C27.129 15.6134 26.1817 13.3211 24.4913 11.6321C22.8009 9.94313 20.5068 8.99663 18.1163 9.00195ZM12.6118 18.002C12.6118 21.0396 15.0762 23.502 18.1163 23.502C21.1564 23.502 23.6208 21.0396 23.6208 18.002C23.6208 14.9644 21.1564 12.502 18.1163 12.502C15.0762 12.502 12.6118 14.9644 12.6118 18.002Z" fill="white"/>
</svg>
